<svg width="414" height="277" viewBox="0 0 414 277" fill="none" xmlns="http://www.w3.org/2000/svg">
<g opacity="0.04">
<path d="M111.925 178.023L96.7937 182.38L79.1825 101.919C76.2015 87.5142 67.1974 79.1635 52.295 84.3187L22.7558 94.5527C20.6322 95.1643 19.61 96.6106 19.2713 98.436L7.45941 165.483C5.88184 176.017 4.19136 187.159 2.61683 199.708C1.79294 206.857 0.969052 214.006 0.599802 220.736C0.227516 225.451 -0.0684919 230.432 0.0138606 234.728L0.318978 235.792C0.129797 236.135 0.129797 236.135 0.282356 236.667C0.889554 236.78 1.15501 236.703 1.68593 236.55L1.91477 237.349L1.72559 237.691L0.398294 238.073C1.08784 242.482 2.57377 246.662 4.59062 250.689C9.87836 260.11 19.2121 260.591 28.4635 256.775L66.2289 242.156L74.5464 273.167C75.3855 276.094 78.1194 277.61 81.0394 276.769L113.16 267.52C116.345 266.603 117.481 264.548 116.565 261.356L108.129 226.922L123.22 221.425C125.799 220.394 126.934 218.34 126.36 215.337L118.152 181.702C117.731 179.231 114.579 177.259 111.925 178.023ZM52.9447 112.642L53.7411 112.413C53.8174 112.679 53.8937 112.945 53.6282 113.022L53.8571 113.82L52.2643 114.278L51.2757 112.835C52.0721 112.606 52.9447 112.642 52.9447 112.642ZM49.9881 114.358C50.7844 114.129 51.0499 114.052 51.3916 114.242C51.8097 114.697 52.0751 114.621 52.6823 114.734C51.4313 115.382 50.7112 115.878 50.1803 116.03L49.9881 114.358ZM20.1834 124.668C20.7143 124.515 21.169 124.097 21.8891 123.601C21.6999 123.944 21.5107 124.286 21.587 124.552C21.6633 124.818 22.005 125.008 22.8777 125.044C22.6885 125.387 22.4993 125.729 22.2338 125.806L19.8447 126.494L19.1612 126.115C19.1979 125.24 19.6525 124.821 20.1834 124.668ZM39.3422 124.335L41.4659 123.724L41.6947 124.522L39.571 125.133L39.3422 124.335ZM51.0987 121.238L52.1605 120.932C53.2223 120.626 53.8295 120.739 54.1347 121.803L52.011 122.415C51.2146 122.644 50.6837 122.797 50.229 123.216L49.5822 121.962C50.1131 121.81 50.5677 121.391 51.0987 121.238ZM57.4391 124.308L55.5809 124.843L55.1995 123.513L55.3887 123.17L55.3124 122.904C56.0325 122.409 56.8289 122.18 57.967 122.14C58.1959 122.938 57.8175 123.623 57.4391 124.308ZM51.4861 126.598L52.5114 127.167L51.6021 128.005L50.766 127.093L51.4861 126.598ZM55.2117 131.573L54.7937 131.117C54.5282 131.194 54.5282 131.194 54.1865 131.004C54.1102 130.738 54.3756 130.662 54.6411 130.585C54.8303 130.243 54.754 129.977 54.6777 129.711C55.7029 130.279 55.8555 130.812 55.2117 131.573ZM18.9597 143.452C17.7453 143.226 16.8727 143.189 16.5309 142.999L17.0985 141.972C17.4402 142.162 17.7057 142.085 17.7819 142.351C18.0474 142.275 18.3129 142.198 18.6546 142.388L18.9597 143.452ZM49.8262 132.836L51.1535 132.454L51.3823 133.252L50.055 133.634L49.8262 132.836ZM58.8182 133.126C58.6657 132.594 58.5131 132.062 58.7023 131.72L58.8915 131.377C59.4224 131.224 59.6879 131.148 59.7641 131.414C60.0296 131.337 60.2951 131.261 60.6368 131.451C60.5239 132.059 59.8801 132.82 58.8182 133.126ZM39.2872 138.174L41.4108 137.563L41.6397 138.361L39.516 138.973L39.2872 138.174ZM48.7308 136.031C48.92 135.689 49.4509 135.536 49.9818 135.383L51.5746 134.924L51.425 136.407C49.9452 136.257 49.0725 136.221 48.7308 136.031ZM47.8246 138.884L46.0426 139.685L45.0174 139.116L47.5194 137.82L47.8246 138.884ZM56.0904 135.64L56.4718 136.97L54.6136 137.505L54.2322 136.175L56.0904 135.64ZM59.3949 138.144L57.497 137.539C57.6862 137.196 57.6862 137.196 57.9517 137.12L57.8754 136.854L58.9372 136.548C59.999 136.242 60.8717 136.279 61.1005 137.077L59.3949 138.144ZM50.2564 141.351L49.7987 139.755L51.9224 139.144L52.0749 139.676C52.1512 139.942 52.493 140.131 52.5692 140.397L50.2564 141.351ZM53.213 139.636L52.9842 138.838L54.577 138.379L54.8058 139.177L53.213 139.636ZM50.1069 142.834L51.1687 142.529L51.4738 143.593L50.412 143.899L50.1069 142.834ZM15.6002 154.787C15.5239 154.521 15.2585 154.597 15.2585 154.597L15.0296 153.799C15.4843 153.38 15.4843 153.38 15.7497 153.304L16.5461 153.075C16.8878 153.264 16.8878 153.264 17.1533 153.188C17.1533 153.188 17.495 153.377 17.7605 153.301L17.9131 153.833C17.4584 154.252 16.7383 154.747 15.9419 154.976L15.6002 154.787ZM61.8298 142.627L59.7061 143.238L58.87 142.327C59.2484 141.642 59.9685 141.147 60.7649 140.917L61.8298 142.627ZM61.2377 152.589L60.9326 151.525L65.3325 150.834L61.2377 152.589ZM61.3537 153.995L62.1867 152.891C62.4521 152.815 62.7176 152.739 63.0593 152.928L64.0083 153.231C64.1608 153.763 63.9716 154.105 63.1753 154.335L62.6443 154.488C62.3026 154.298 61.9609 154.108 61.3537 153.995ZM63.9747 156.12L65.4545 156.27L65.3416 156.879L64.2035 156.918L63.9747 156.12ZM61.2865 159.774L63.1447 159.239C62.8426 160.19 61.7808 160.496 60.9844 160.725C61.3628 160.04 61.3628 160.04 61.2865 159.774ZM66.26 162.086C65.8054 162.505 65.2745 162.658 64.4781 162.887L63.642 161.976C63.8312 161.634 64.3622 161.481 64.3622 161.481C64.6276 161.404 64.8168 161.062 64.8168 161.062C64.8168 161.062 64.7405 160.796 65.006 160.719L65.7657 161.364L66.3333 160.337L67.926 159.878C68.3074 161.209 67.8528 161.627 66.7147 161.667C66.7147 161.667 66.3729 161.478 65.842 161.63L66.26 162.086ZM86.856 158.747C86.0596 158.977 85.3761 158.597 85.0344 158.408L84.9581 158.142C85.2236 158.065 85.2236 158.065 85.4127 157.723L87.0055 157.264L87.6127 157.377C87.689 157.643 87.3869 158.594 86.856 158.747ZM67.215 166.419L63.8403 167.679C63.6115 166.881 63.6481 166.006 63.8373 165.664L65.4301 165.205C65.6955 165.129 66.0373 165.318 66.6444 165.431L66.9099 165.355L67.215 166.419ZM48.3673 196.901C49.1881 187.737 49.7069 179.524 50.7199 172.033L50.9854 171.956C50.8328 171.424 50.8695 170.55 50.9061 169.675L56.2547 194.342L48.3673 196.901ZM78.1751 163.551C77.9097 163.627 77.9097 163.627 77.986 163.893L77.1896 164.123C77.3788 163.78 77.5679 163.438 77.8334 163.361C77.7571 163.095 78.0226 163.019 78.5535 162.866C78.3643 163.208 78.0989 163.285 78.1751 163.551ZM82.4225 162.328L83.6369 162.554L83.7132 162.82L82.2333 162.67L82.4225 162.328ZM74.4221 165.496C74.4984 165.762 74.2329 165.838 74.1566 165.572C73.8149 165.382 73.8149 165.382 73.7386 165.116C73.7386 165.116 74.8767 165.077 74.4221 165.496ZM68.7345 167.709L68.5057 166.911L70.7057 166.566C70.5928 167.174 70.4036 167.517 70.2144 167.859C69.6469 168.886 68.8871 168.241 68.7345 167.709ZM65.2134 172.467C64.5299 172.088 64.1119 171.632 63.9593 171.1C64.2248 171.024 64.4902 170.947 64.6794 170.605L65.7412 170.299L66.7665 170.868C66.3881 171.553 66.0097 172.238 65.2134 172.467ZM84.4424 168.37C83.1151 168.752 82.8099 167.688 82.6574 167.156C82.5811 166.89 82.7703 166.547 83.3012 166.395C83.7558 165.976 84.6651 165.138 85.6903 165.707L86.3738 166.086C86.6789 167.15 85.2387 168.141 84.4424 168.37ZM58.6989 179.815L58.3175 178.485L60.4412 177.873L60.67 178.671C60.4808 179.014 60.5571 179.28 60.5571 179.28L58.6989 179.815ZM86.5721 171.788L84.9031 171.981C84.8268 171.715 85.016 171.373 85.2814 171.296L86.3433 170.99L86.4195 171.256C86.4195 171.256 86.685 171.18 86.7613 171.446L86.5721 171.788ZM16.796 193.033L16.7594 193.908L15.963 194.137L14.8615 193.302L16.796 193.033ZM63.8982 180.909L62.3055 181.368L62.0766 180.57L63.6694 180.111L63.8982 180.909ZM57.7987 186.698C57.2678 186.851 57.0786 187.193 56.8132 187.269L56.0138 185.484L57.0359 184.037C57.3777 184.227 59.4647 184.49 59.541 184.756C59.6936 185.288 59.2389 185.707 58.5188 186.202C58.5188 186.202 58.2534 186.279 57.7987 186.698ZM74.2542 179.943C73.7232 180.096 73.4578 180.173 73.2686 180.515C73.2686 180.515 73.1923 180.249 72.8506 180.059C72.8506 180.059 72.7743 179.793 72.9635 179.451C73.0398 179.717 73.3052 179.641 73.5707 179.564L74.6325 179.258C74.7088 179.524 74.5196 179.867 74.2542 179.943ZM18.6237 197.402C18.0165 197.289 17.4093 197.176 17.0676 196.987L18.166 195.806L20.369 197.476C19.8381 197.629 19.2309 197.516 18.6237 197.402ZM68.9084 182.347L68.6429 182.423L68.4903 181.891C69.0213 181.738 69.2867 181.662 69.363 181.928C69.0975 182.004 69.0975 182.004 68.9084 182.347ZM18.0958 199.57C17.2994 199.8 16.7319 200.827 17.0736 201.017L17.1499 201.283L15.3283 200.943C14.834 200.222 14.9469 199.613 15.249 198.662C15.249 198.662 15.5145 198.586 15.7036 198.243L16.5 198.014C16.7655 197.938 17.0309 197.861 17.3727 198.051L18.3216 198.353L19.0814 198.999C18.8922 199.341 18.6267 199.418 18.0958 199.57ZM61.2588 191.749L60.6486 189.621C61.3321 190 61.6738 190.19 61.5975 189.924C62.2047 190.037 62.5465 190.226 62.699 190.758C63.0041 191.822 62.3969 191.709 61.6005 191.939C61.3351 192.015 61.3351 192.015 61.2588 191.749ZM63.6113 191.936L63.3825 191.138C63.1536 190.339 63.8737 189.844 64.6701 189.615C65.2773 189.728 65.6953 190.184 65.8479 190.716L65.2041 191.477L63.6113 191.936ZM58.9887 195.859C57.6614 196.241 56.7124 195.938 56.4836 195.14L58.6073 194.529L58.9887 195.859ZM64.2215 194.064L65.2834 193.758L65.6648 195.088L64.6029 195.394L64.2215 194.064ZM37.8679 203.381C38.057 203.038 38.3225 202.962 38.3225 202.962C38.588 202.885 38.9297 203.075 38.9297 203.075L39.1952 202.998C38.7405 203.417 38.5513 203.76 38.2859 203.836L38.1333 203.304L37.8679 203.381ZM4.84107 215.483C4.49933 215.293 4.23388 215.37 3.96842 215.446C3.70296 215.523 3.36122 215.333 3.20866 214.801L5.06688 214.266C5.14315 214.532 5.14315 214.532 5.40861 214.455C5.48489 214.721 5.29571 215.064 4.84107 215.483ZM36.0188 209.961C35.4878 210.114 35.2224 210.19 34.6152 210.077L34.4626 209.545L35.0302 208.517C36.1683 208.478 37.1172 208.78 37.1935 209.046C37.0806 209.655 36.5497 209.808 36.0188 209.961ZM66.8517 202.234C66.7754 201.968 66.6991 201.702 66.8883 201.36C66.812 201.094 67.0012 200.751 67.1904 200.409C67.7213 200.256 68.3285 200.369 68.9357 200.482C68.5573 201.167 67.9135 201.928 66.8517 202.234ZM23.4781 221.348L23.8564 220.663L23.9327 220.929L24.2744 221.118L23.4781 221.348ZM74.4859 207.811C74.2204 207.888 73.9549 207.964 73.6132 207.775L73.2715 207.585L72.7405 207.738C72.9297 207.396 72.9297 207.396 73.1952 207.319C73.1952 207.319 73.3844 206.977 73.6498 206.9C73.6498 206.9 73.839 206.558 74.1045 206.481C74.4462 206.671 74.5225 206.937 74.5987 207.203C74.3333 207.279 74.4096 207.545 74.4859 207.811ZM48.5838 214.694L48.2054 215.379C47.409 215.608 47.3327 215.342 47.4456 214.734L48.5838 214.694ZM14.9894 227.824L12.8658 228.435C12.6003 228.512 12.524 228.246 12.4477 227.98C12.2952 227.448 12.7498 227.029 13.2045 226.61C13.5462 226.799 14.0771 226.647 14.3426 226.57C14.9498 226.683 15.2915 226.873 15.3678 227.139C15.3678 227.139 15.4441 227.405 14.9894 227.824ZM38.3498 221.097L37.6664 220.718L38.0447 220.033C38.3102 219.956 38.9174 220.07 39.5246 220.183C39.3354 220.525 38.8807 220.944 38.3498 221.097ZM42.4477 221.357C42.1822 221.433 42.1059 221.167 41.9534 220.635C42.2951 220.825 42.826 220.672 43.0915 220.596C43.6224 220.443 44.1533 220.29 44.495 220.479C44.0404 220.898 43.7749 220.975 43.5095 221.051L42.4477 221.357ZM52.0529 225.791L51.522 225.944C50.4602 226.249 49.3587 225.415 49.2824 225.149C49.1299 224.617 49.0536 224.35 49.2428 224.008C50.5334 224.5 51.7478 224.727 52.8097 224.421C52.5076 225.372 52.3184 225.714 52.0529 225.791ZM49.1359 228.647C48.8705 228.723 48.8705 228.723 48.9468 228.989L48.1504 229.218C47.6195 229.371 47.2777 229.182 46.936 228.992C46.6705 229.069 45.9108 228.423 46.6309 227.928C46.8963 227.852 47.0855 227.509 47.351 227.433C47.8819 227.28 48.1473 227.203 48.2236 227.469L48.7545 227.316L48.9834 228.115C49.3251 228.304 49.0597 228.381 49.1359 228.647ZM40.2629 231.778C40.2629 231.778 40.1866 231.512 40.4521 231.435C40.2995 230.903 40.565 230.827 40.565 230.827C40.6412 231.093 40.9067 231.016 41.2484 231.206C41.5139 231.129 41.7794 231.053 42.3866 231.166C41.9319 231.585 41.1355 231.814 40.2629 231.778ZM22.7822 237.963C22.8585 238.229 22.6693 238.572 22.6693 238.572C22.6693 238.572 22.3276 238.382 22.0621 238.459C21.7967 238.535 21.455 238.346 21.1895 238.422L20.9607 237.624L22.5534 237.165L22.7822 237.963ZM79.0687 227.803L78.5378 227.956C78.4615 227.69 78.196 227.766 78.196 227.766L77.8909 226.702C78.4584 225.675 78.8002 225.864 79.2945 226.586C79.2945 226.586 79.5599 226.509 79.978 226.965C80.1305 227.497 79.8651 227.574 79.0687 227.803ZM77.3691 232.9C77.6742 233.964 77.5613 234.573 77.0304 234.726C75.4376 235.184 74.4887 234.882 74.1836 233.817C74.031 233.285 75.4712 232.295 76.0021 232.142C77.3294 231.76 77.2928 232.634 77.3691 232.9ZM66.1862 239C66.2625 239.266 66.0733 239.609 65.8842 239.951C64.8223 240.257 64.4806 240.067 64.328 239.535C64.2517 239.269 64.1755 239.003 64.4409 238.927L64.3646 238.661L65.6919 238.279C65.6919 238.279 65.7682 238.545 66.0337 238.468L66.1862 239Z" fill="white"/>
<path d="M247.526 56.611C248.698 53.6817 247.441 50.2999 244.176 48.9361L213.24 38.2613C210.316 37.0871 207.094 38.8789 205.846 41.5422L186.809 97.4221L150.219 61.0165C149.041 59.9157 147.75 59.4234 146.005 59.35C144.602 59.4662 143.274 59.8484 142.176 61.0287L117.781 86.1967C115.129 88.9761 115.285 91.5232 117.717 93.9908L171.025 146.606L147.542 248.116C146.94 252.033 150.361 255.944 154.343 254.797L192.267 244.74C194.39 244.129 195.678 242.606 196.206 240.438L200.99 218.037C200.383 217.924 199.776 217.811 199.093 217.432C198.94 216.9 200.722 216.099 200.987 216.022C201.253 215.946 201.253 215.946 201.595 216.135L203.062 208.225C202.986 207.959 202.644 207.77 202.644 207.77C202.492 207.238 202.757 207.161 202.681 206.895C202.946 206.819 202.87 206.553 202.87 206.553L203.667 206.323L207.887 186.965L240.269 225.734C241.941 227.556 243.839 228.162 245.963 227.55L279.411 217.919C282.862 216.925 284.714 212.36 282.053 209.094L222.225 134.742C225.355 122.609 229.093 110.589 232.755 98.303C237.588 83.0878 242.461 69.0131 247.526 56.611ZM166.634 78.1766C166.369 78.253 166.445 78.519 166.445 78.519L164.587 79.0541L164.435 78.5221C164.282 77.99 164.849 76.9627 166.064 77.1889L166.824 77.8341C166.9 78.1001 166.9 78.1001 166.634 78.1766ZM201.76 74.3975L203.695 74.1284L203.847 74.6605L201.913 74.9295L201.76 74.3975ZM214.328 81.146C214.405 81.412 214.216 81.7545 214.216 81.7545L212.357 82.2896C212.281 82.0235 211.939 81.834 211.674 81.9104C211.332 81.7208 211.332 81.7208 211.521 81.3784C211.558 80.5039 211.558 80.5039 212.278 80.0085L213.605 79.6263L214.365 80.2715C214.441 80.5375 214.518 80.8035 214.328 81.146ZM201.666 87.0962C201.589 86.8302 201.513 86.5642 201.779 86.4878C202.575 86.2584 203.713 86.2187 204.851 86.1789L206.179 85.7967L206.218 86.9373L201.287 87.7812C201.211 87.5152 201.4 87.1727 201.666 87.0962ZM177.927 94.508L178.571 93.7466L178.913 93.9362L178.269 94.6976L177.927 94.508ZM209.291 86.6285L208.76 86.7814L208.418 86.5918C208.607 86.2493 208.607 86.2493 208.531 85.9833L209.327 85.754C209.669 85.9435 209.669 85.9435 209.935 85.8671L209.291 86.6285ZM201.672 91.1263L201.785 90.5178L202.734 90.8206L201.748 91.3924L201.672 91.1263ZM206.529 92.0314L206.566 91.1569C206.831 91.0805 207.362 90.9276 207.704 91.1172C208.046 91.3068 208.311 91.2303 208.388 91.4964L206.529 92.0314ZM201.907 95.9545C203.121 96.1808 203.463 96.3704 203.463 96.3704C203.805 96.5599 204.412 96.6731 205.095 97.0522C205.095 97.0522 204.906 97.3947 204.641 97.4711C204.451 97.8136 204.262 98.1561 203.808 98.575C203.884 98.841 203.618 98.9174 203.429 99.2599C203.277 98.7279 202.593 98.3487 201.986 98.2355C202.212 97.0186 201.983 96.2205 201.907 95.9545ZM184.475 109.326C184.209 109.402 183.868 109.213 183.868 109.213C183.791 108.947 184.057 108.87 184.057 108.87C183.981 108.604 183.904 108.338 184.17 108.262C184.853 108.641 184.93 108.907 185.006 109.173L184.475 109.326ZM186.537 118.523L186.196 118.334C185.93 118.41 185.854 118.144 185.589 118.221C185.247 118.031 185.247 118.031 185.171 117.765C185.436 117.689 186.232 117.459 187.447 117.686L186.537 118.523ZM190.226 124.373L190.757 124.22L191.441 124.599L190.721 125.095L190.226 124.373ZM185.909 129.36C185.909 129.36 186.135 128.143 186.4 128.067L187.16 128.712L185.909 129.36ZM194.062 126.724L195.2 126.685C195.542 126.874 195.694 127.406 195.316 128.091C194.785 128.244 193.989 128.473 193.571 128.018L193.076 127.296L194.062 126.724ZM193.003 129.045C192.319 128.666 192.243 128.4 192.774 128.247C192.509 128.324 192.661 128.856 193.003 129.045ZM194.181 130.146C193.839 129.956 193.686 129.424 193.345 129.235C193.421 129.501 193.686 129.424 193.686 129.424C194.028 129.614 194.104 129.88 194.181 130.146ZM197.378 137.289L195.102 137.368L193.961 135.393L196.085 134.781C196.881 134.552 197.412 134.399 198.095 134.778C198.666 135.766 198.288 136.451 197.378 137.289ZM203.524 136.671L202.688 135.76L204.128 134.769L204.698 135.757L203.524 136.671ZM202.657 140.665L201.745 139.487L203.45 138.42L203.603 138.952L203.868 138.876L204.21 139.065C204.286 139.331 204.552 139.255 204.628 139.521L202.657 140.665ZM208.882 142.328C209.412 142.175 210.285 142.212 211.5 142.438L210.932 143.466C211.008 143.732 210.477 143.884 210.212 143.961C209.87 143.771 209.416 144.19 209.15 144.267C208.39 143.621 208.503 143.013 208.882 142.328ZM190.949 150.948C190.608 150.758 190.077 150.911 189.887 151.253C189.28 151.14 188.597 150.761 188.444 150.229L189.543 149.049L191.023 149.199L190.949 150.948ZM215.103 141.976C216.165 141.671 217.227 141.365 217.986 142.01L216.699 143.533L216.092 143.42L215.939 142.888C215.674 142.964 215.256 142.509 215.103 141.976ZM213.516 146.465L214.352 147.376L214.429 147.642C214.505 147.908 214.77 147.832 215.036 147.756L215.112 148.022L215.796 148.401C215.417 149.086 214.963 149.505 213.977 150.076L215.344 150.835L213.373 151.978C212.842 152.131 212.766 151.865 213.144 151.18L212.384 150.535C212.574 150.193 212.763 149.85 212.686 149.584L213.217 149.431C213.141 149.165 213.33 148.823 213.596 148.746C213.596 148.746 213.519 148.48 214.05 148.327L213.519 148.48L212.003 149.205C211.396 149.092 210.712 148.713 210.218 147.991L213.516 146.465ZM213.034 153.804L212.238 154.033L211.856 152.703L213.98 152.091C214.776 151.862 215.384 151.975 215.878 152.697L214.78 153.877C214.514 153.954 214.249 154.03 214.172 153.764L213.376 153.993L213.034 153.804ZM215.957 154.978L216.488 154.825L216.412 154.559C216.412 154.559 216.488 154.825 216.754 154.749C217.019 154.672 217.626 154.785 217.703 155.051L217.248 155.47C216.565 155.091 215.957 154.978 215.957 154.978ZM218.346 154.29L219.863 153.565C220.128 153.489 220.205 153.755 220.736 153.602L221.343 153.715C222.139 153.486 222.746 153.599 222.899 154.131L223.051 154.663C222.862 155.006 222.862 155.006 222.939 155.272L222.408 155.424C222.408 155.424 222.142 155.501 222.066 155.235L221.724 155.045L221.459 155.122L220.51 154.819L220.321 155.161L220.055 155.238L220.131 155.504L219.601 155.657L218.386 155.431L218.346 154.29ZM217.327 157.751L215.96 156.993L218.16 156.647L218.996 157.559L217.327 157.751ZM222.337 159.188L221.581 160.558L219.759 160.219C220.025 160.142 220.214 159.8 220.137 159.534C220.061 159.268 220.25 158.926 220.516 158.849C221.578 158.543 222.185 158.656 222.337 159.188ZM216.693 164.558C216.616 164.292 216.805 163.949 216.805 163.949L216.729 163.683C216.653 163.417 216.918 163.341 217.108 162.998L218.093 162.427C219.573 162.576 219.838 162.5 220.635 162.271L221.431 162.041L221.355 161.775L225.715 159.944L222.191 162.687L222.496 163.751C222.572 164.017 222.118 164.436 221.587 164.588C221.056 164.741 220.449 164.628 219.841 164.515L218.172 164.708C217.754 164.252 217.224 164.405 216.693 164.558ZM236.492 161.448L236.983 160.155L237.78 159.926C238.311 159.773 238.576 159.696 238.5 159.43L240.172 161.253C240.325 161.785 240.325 161.785 240.212 162.393L239.946 162.47C240.212 162.393 240.63 162.849 241.124 163.57C241.2 163.836 241.011 164.179 241.011 164.179C240.746 164.255 240.822 164.521 240.633 164.864L240.178 165.283L240.254 165.549L239.876 166.234C239.192 165.854 238.433 165.209 237.673 164.564C237.179 163.842 236.419 163.197 235.925 162.476C236.568 161.714 236.681 161.106 236.492 161.448ZM227.808 164.237L227.997 163.894C228.452 163.475 229.325 163.512 230.197 163.549C230.539 163.738 230.692 164.27 230.39 165.221L228.949 166.212L228.684 166.289C228.419 166.365 228.077 166.175 227.659 165.72C227.317 165.53 227.43 164.922 227.808 164.237ZM220.833 167.973L222.728 166.564L223.338 168.692C222.618 169.187 221.822 169.417 221.215 169.303L220.833 167.973ZM228.312 171.004C228.464 171.536 228.275 171.878 228.275 171.878C228.275 171.878 228.351 172.144 228.162 172.487L227.973 172.829C228.049 173.095 228.049 173.095 227.518 173.248L226.493 172.679L225.999 171.958L228.312 171.004ZM231.384 170.695L232.294 169.857L233.206 171.034L232.22 171.606L231.384 170.695ZM223.424 175.003L225.431 172.985L226.533 173.82L223.424 175.003ZM245.341 167.252C246.1 167.897 245.722 168.582 244.471 169.23C243.94 169.383 243.751 169.726 243.486 169.802L243.409 169.536L243.144 169.612L242.802 169.423L243.217 167.863L245.341 167.252ZM243.412 171.551L241.859 173.15L240.529 171.517L242.311 170.716L242.387 170.982L243.412 171.551ZM227.524 177.278L230.255 176.78C230.332 177.046 230.142 177.388 230.142 177.388C229.877 177.465 229.953 177.731 229.953 177.731C230.03 177.997 229.764 178.073 229.499 178.15C228.968 178.302 228.171 178.532 227.033 178.571L227.524 177.278ZM250.583 171.502L250.204 172.187C249.939 172.264 249.75 172.606 249.826 172.872C249.75 172.606 249.673 172.34 249.143 172.493C249.066 172.227 248.725 172.037 248.307 171.582C249.103 171.352 249.634 171.199 250.583 171.502ZM247.403 176.45L246.872 176.602L247.062 176.26L247.327 176.184C247.251 175.917 247.251 175.918 247.516 175.841C247.782 175.765 248.123 175.954 248.276 176.486C247.745 176.639 247.403 176.45 247.403 176.45ZM232.083 181.149L230.643 182.14L230.49 181.608L231.741 180.96L232.083 181.149ZM251.77 178.648C251.504 178.725 251.58 178.991 251.315 179.067C251.315 179.067 251.05 179.143 250.86 179.486C249.875 180.058 249.078 180.287 248.395 179.908C247.181 179.682 246.497 179.302 246.912 177.743L248.126 177.969C248.05 177.703 248.316 177.627 248.239 177.361C248.505 177.284 248.429 177.018 248.429 177.018C249.567 176.979 250.098 176.826 250.363 176.749L251.693 178.382L251.77 178.648ZM236.452 185.363C236.187 185.439 236.111 185.173 235.58 185.326L235.049 185.479C234.442 185.366 234.442 185.366 234.554 184.757C234.554 184.757 234.478 184.491 234.136 184.302L236.526 183.614C237.056 183.461 237.777 182.966 238.231 182.547C238.307 182.813 238.118 183.155 238.118 183.155C238.195 183.421 238.195 183.421 237.929 183.498L238.005 183.764C238.082 184.03 238.158 184.296 237.969 184.638L236.718 185.286L236.452 185.363ZM249.078 180.287L249.46 181.617L248.133 181.999L248.017 180.593L249.078 180.287ZM255.26 178.795C255.867 178.908 256.816 179.211 257.576 179.856C257.274 180.807 256.554 181.302 255.15 181.418C255.074 181.152 254.998 180.886 254.656 180.697C254.391 180.773 254.049 180.584 253.555 179.862L255.26 178.795ZM218.218 194.933C217.687 195.086 217.687 195.086 217.345 194.897L217.08 194.973L216.698 193.643C217.153 193.224 217.342 192.882 217.608 192.805L218.368 193.45C218.709 193.64 218.786 193.906 219.051 193.829C219.204 194.362 218.749 194.78 218.218 194.933ZM248.972 184.926L250.454 187.09C250.72 187.014 251.593 187.051 252.92 186.669L253.454 188.531L253.076 189.216C252.81 189.292 252.81 189.292 252.886 189.558C252.697 189.901 252.432 189.977 252.432 189.977C249.927 189.258 248.978 188.956 245.752 188.732C245.6 188.2 246.357 186.831 246.888 186.678L247.419 186.525L247.077 186.335C246.659 185.88 246.659 185.88 246.506 185.348C247.037 185.195 247.833 184.965 248.972 184.926ZM254.018 185.488C253.753 185.565 253.033 186.06 252.236 186.289L251.855 184.959L253.713 184.424L255.608 183.015C256.179 184.002 256.066 184.611 255.611 185.03L254.018 185.488ZM260.13 187.76L259.865 187.837C259.941 188.103 259.752 188.445 259.752 188.445C259.486 188.522 259.144 188.332 258.879 188.408L256.566 189.362C256.414 188.83 256.526 188.222 256.563 187.347C256.676 186.739 257.131 186.32 257.396 186.244L257.32 185.978L257.585 185.901L259.556 184.757C259.785 185.556 259.672 186.164 259.483 186.507L259.37 187.115C259.447 187.381 259.788 187.571 260.13 187.76ZM256.453 189.971L258.62 192.515C258.507 193.123 258.128 193.808 257.484 194.57L256.801 194.191C256.725 193.925 256.459 194.001 256.383 193.735C255.889 193.013 255.66 192.215 254.296 193.472L253.46 192.561C253.231 191.763 253.344 191.154 253.268 190.888L253.304 190.014C253.57 189.937 253.494 189.671 253.341 189.139L255.388 188.262L256.301 189.439C256.111 189.781 255.922 190.124 255.391 190.277L255.468 190.543C255.657 190.2 255.922 190.124 256.453 189.971ZM179.473 214.154C179.473 214.154 179.208 214.23 178.866 214.041L178.335 214.194C177.462 214.157 177.462 214.157 178.03 213.13L179.623 212.671L180.761 212.631C180.837 212.897 180.27 213.925 179.473 214.154ZM260.249 191.182L259.147 190.347C259.526 189.662 260.322 189.433 261.195 189.469L260.249 191.182ZM262.144 189.772L263.129 189.2L263.395 189.124C263.737 189.314 263.813 189.58 263.813 189.58L264.155 189.769L262.525 191.102L262.144 189.772ZM169.352 219.948C169.087 220.025 169.087 220.025 169.163 220.291L168.101 220.596C168.479 219.912 168.934 219.493 169.807 219.529C169.541 219.606 169.352 219.948 169.352 219.948ZM164.348 222.541L164.424 222.807C164.159 222.884 164.083 222.618 164.083 222.618L163.854 221.82C164.119 221.743 165.068 222.046 164.348 222.541ZM174.472 218.762L175.686 218.988L174.548 219.028L174.472 218.762ZM253.771 197.655C253.619 197.123 253.731 196.514 254.262 196.362C254.68 196.817 255.022 197.007 255.098 197.273L253.771 197.655ZM174.405 224.541C174.252 224.009 174.707 223.59 175.427 223.095C176.489 222.789 176.944 222.37 176.678 222.446C177.209 222.294 177.816 222.407 178.5 222.786L179.183 223.165C179.641 224.761 177.593 225.639 177.063 225.792C175.204 226.327 174.557 225.073 174.405 224.541ZM255.861 199.933L256.243 201.263L255.37 201.226C255.104 201.303 254.952 200.771 254.799 200.239L255.861 199.933ZM179.497 230.274L177.297 230.62C177.145 230.088 177.334 229.745 177.6 229.669L179.192 229.21L179.269 229.476C179.269 229.476 179.534 229.4 179.876 229.589L179.497 230.274ZM262.019 207.376L261.601 206.92L261.866 206.844L262.473 206.957L262.019 207.376ZM270.855 205.119L271.462 205.232C271.615 205.764 271.426 206.107 270.971 206.526C270.364 206.412 270.022 206.223 269.946 205.957C269.869 205.691 270.059 205.348 270.855 205.119ZM262.931 208.553L262.553 209.238L262.287 209.314L262.4 208.706L262.931 208.553ZM186.711 233.381C185.99 233.876 185.46 234.029 184.929 234.182C184.398 234.335 183.867 234.488 183.678 234.83L182.009 235.023L181.78 234.225C182.689 233.387 183.675 232.815 184.205 232.662C184.736 232.51 185.002 232.433 185.344 232.623C185.609 232.546 185.951 232.736 186.558 232.849L186.711 233.381ZM243.406 217.631C243.14 217.707 242.609 217.86 242.42 218.203C242.155 218.279 241.7 218.698 241.169 218.851C240.107 219.157 238.817 218.665 238.664 218.132C238.664 218.132 238.588 217.866 238.853 217.79L238.777 217.524L238.966 217.182L240.825 216.646C241.621 216.417 243.101 216.567 243.784 216.946L243.406 217.631ZM164.488 240.068C163.957 240.221 163.426 240.374 163.237 240.716C163.161 240.45 163.085 240.184 162.819 240.261C162.743 239.995 162.743 239.995 162.856 239.386C163.198 239.576 163.729 239.423 163.994 239.346L165.056 239.041C165.208 239.573 165.019 239.915 164.488 240.068ZM271.05 208.807C270.974 208.541 271.429 208.122 271.96 207.969C272.49 207.816 273.363 207.853 273.97 207.966L274.123 208.498C273.592 208.651 273.403 208.993 273.214 209.336L271.621 209.794C271.279 209.605 271.014 209.681 270.596 209.226C270.519 208.96 270.785 208.883 271.05 208.807ZM267.258 209.611C267.788 209.458 267.865 209.724 267.828 210.598L267.563 210.675C267.221 210.485 266.955 210.562 266.879 210.296L267.068 209.953C267.068 209.953 267.334 209.877 267.258 209.611ZM158.346 242.701C158.157 243.043 157.891 243.12 157.626 243.196L157.473 242.664L158.535 242.358L158.346 242.701ZM251.684 222.447C251.681 220.432 251.415 220.508 253.008 220.05C253.539 219.897 254.146 220.01 254.677 219.857C256.157 220.007 257.826 219.814 259.153 219.432L260.746 218.973L264.841 217.218C266.965 216.607 273.754 215.228 274.513 215.873L251.684 222.447Z" fill="white"/>
<path d="M399.419 95.2368L384.288 99.5939L366.677 19.1327C363.696 4.72769 354.692 -3.62303 339.789 1.5322L310.25 11.7662C308.126 12.3777 307.104 13.824 306.766 15.6495L294.954 82.6963C293.376 93.2301 291.686 104.372 290.111 116.921C289.287 124.07 288.463 131.219 288.094 137.949C287.722 142.664 287.426 147.645 287.508 151.942L287.813 153.006C287.624 153.348 287.624 153.348 287.777 153.88C288.384 153.993 288.649 153.917 289.18 153.764L289.409 154.562L289.22 154.904L287.893 155.287C288.582 159.696 290.068 163.876 292.085 167.903C297.373 177.324 306.706 177.804 315.958 173.988L353.723 159.369L362.041 190.381C362.88 193.307 365.614 194.824 368.534 193.983L400.654 184.733C403.84 183.816 404.975 181.761 404.059 178.569L395.623 144.136L410.715 138.638C413.293 137.608 414.428 135.553 413.854 132.55L405.647 98.9153C405.226 96.4446 402.074 94.4724 399.419 95.2368ZM340.439 29.8559L341.235 29.6266C341.312 29.8927 341.388 30.1587 341.122 30.2351L341.351 31.0332L339.759 31.4918L338.77 30.0486C339.566 29.8193 340.439 29.8559 340.439 29.8559ZM337.482 31.5713C338.279 31.342 338.544 31.2656 338.886 31.4551C339.304 31.9107 339.569 31.8343 340.177 31.9474C338.926 32.5957 338.205 33.091 337.674 33.2439L337.482 31.5713ZM307.678 41.8818C308.209 41.7289 308.663 41.31 309.383 40.8146C309.194 41.1571 309.005 41.4996 309.081 41.7656C309.158 42.0316 309.499 42.2212 310.372 42.2579C310.183 42.6003 309.994 42.9428 309.728 43.0193L307.339 43.7072L306.655 43.3281C306.692 42.4536 307.147 42.0346 307.678 41.8818ZM326.836 41.5486L328.96 40.9371L329.189 41.7352L327.065 42.3467L326.836 41.5486ZM338.593 38.4512L339.655 38.1454C340.717 37.8397 341.324 37.9528 341.629 39.0169L339.505 39.6285C338.709 39.8578 338.178 40.0107 337.723 40.4296L337.076 39.1759C337.607 39.023 338.062 38.6041 338.593 38.4512ZM344.933 41.5212L343.075 42.0563L342.694 40.7262L342.883 40.3837L342.807 40.1177C343.527 39.6224 344.323 39.393 345.461 39.3533C345.69 40.1514 345.312 40.8363 344.933 41.5212ZM338.98 43.8114L340.006 44.3802L339.096 45.218L338.26 44.3068L338.98 43.8114ZM342.706 48.7864L342.288 48.3308C342.022 48.4072 342.022 48.4072 341.681 48.2176C341.604 47.9516 341.87 47.8752 342.135 47.7987C342.325 47.4563 342.248 47.1902 342.172 46.9242C343.197 47.493 343.35 48.025 342.706 48.7864ZM306.454 60.6654C305.24 60.4391 304.367 60.4024 304.025 60.2128L304.593 59.1854C304.934 59.375 305.2 59.2986 305.276 59.5646C305.542 59.4882 305.807 59.4117 306.149 59.6013L306.454 60.6654ZM337.32 50.0492L338.648 49.667L338.877 50.465L337.549 50.8473L337.32 50.0492ZM346.312 50.3397C346.16 49.8077 346.007 49.2756 346.197 48.9332L346.386 48.5907C346.917 48.4378 347.182 48.3614 347.258 48.6274C347.524 48.551 347.789 48.4745 348.131 48.6641C348.018 49.2726 347.374 50.034 346.312 50.3397ZM326.781 55.3879L328.905 54.7764L329.134 55.5744L327.01 56.186L326.781 55.3879ZM336.225 53.2445C336.414 52.902 336.945 52.7492 337.476 52.5963L339.069 52.1376L338.919 53.6206C337.439 53.4708 336.567 53.4341 336.225 53.2445ZM335.319 56.0974L333.537 56.8985L332.512 56.3297L335.014 55.0333L335.319 56.0974ZM343.585 52.8532L343.966 54.1833L342.108 54.7184L341.726 53.3882L343.585 52.8532ZM346.889 55.3575L344.991 54.752C345.18 54.4096 345.18 54.4096 345.446 54.3331L345.37 54.0671L346.431 53.7613C347.493 53.4556 348.366 53.4923 348.595 54.2903L346.889 55.3575ZM337.751 58.565L337.293 56.9688L339.417 56.3573L339.569 56.8893C339.645 57.1554 339.987 57.3449 340.063 57.611L337.751 58.565ZM340.707 56.8496L340.478 56.0515L342.071 55.5929L342.3 56.391L340.707 56.8496ZM337.601 60.048L338.663 59.7422L338.968 60.8063L337.906 61.1121L337.601 60.048ZM303.094 72.0004C303.018 71.7344 302.753 71.8108 302.753 71.8108L302.524 71.0127C302.979 70.5938 302.979 70.5938 303.244 70.5174L304.04 70.288C304.382 70.4776 304.382 70.4776 304.648 70.4012C304.648 70.4012 304.989 70.5908 305.255 70.5143L305.407 71.0464C304.953 71.4653 304.233 71.9606 303.436 72.1899L303.094 72.0004ZM349.324 59.8401L347.2 60.4517L346.364 59.5404C346.743 58.8555 347.463 58.3602 348.259 58.1308L349.324 59.8401ZM348.732 69.8022L348.427 68.7381L352.827 68.0471L348.732 69.8022ZM348.848 71.2088L349.681 70.1049C349.946 70.0285 350.212 69.952 350.554 70.1416L351.503 70.4443C351.655 70.9764 351.466 71.3189 350.669 71.5482L350.139 71.7011C349.797 71.5115 349.455 71.3219 348.848 71.2088ZM351.469 73.3339L352.949 73.4837L352.836 74.0922L351.698 74.132L351.469 73.3339ZM348.781 76.9879L350.639 76.4528C350.337 77.4037 349.275 77.7095 348.479 77.9388C348.857 77.2539 348.857 77.2539 348.781 76.9879ZM353.754 79.2995C353.3 79.7185 352.769 79.8713 351.972 80.1007L351.136 79.1895C351.326 78.847 351.856 78.6941 351.856 78.6941C352.122 78.6177 352.311 78.2752 352.311 78.2752C352.311 78.2752 352.235 78.0092 352.5 77.9327L353.26 78.5779L353.827 77.5505L355.42 77.0919C355.802 78.422 355.347 78.8409 354.209 78.8806C354.209 78.8806 353.867 78.6911 353.336 78.8439L353.754 79.2995ZM374.35 75.9607C373.554 76.19 372.87 75.8108 372.529 75.6212L372.452 75.3552C372.718 75.2788 372.718 75.2788 372.907 74.9363L374.5 74.4777L375.107 74.5908C375.183 74.8568 374.881 75.8078 374.35 75.9607ZM354.709 83.6324L351.335 84.8921C351.106 84.094 351.142 83.2195 351.332 82.8771L352.924 82.4184C353.19 82.342 353.531 82.5316 354.139 82.6447L354.404 82.5683L354.709 83.6324ZM335.862 114.115C336.682 104.951 337.201 96.7377 338.214 89.2462L338.48 89.1698C338.327 88.6377 338.364 87.7632 338.4 86.8887L343.749 111.555L335.862 114.115ZM365.669 80.7643C365.404 80.8407 365.404 80.8407 365.48 81.1068L364.684 81.3361C364.873 80.9936 365.062 80.6511 365.328 80.5747C365.251 80.3087 365.517 80.2322 366.048 80.0794C365.859 80.4218 365.593 80.4983 365.669 80.7643ZM369.917 79.5412L371.131 79.7675L371.207 80.0335L369.728 79.8837L369.917 79.5412ZM361.916 82.709C361.993 82.975 361.727 83.0514 361.651 82.7854C361.309 82.5958 361.309 82.5958 361.233 82.3298C361.233 82.3298 362.371 82.2901 361.916 82.709ZM356.229 84.9227L356 84.1246L358.2 83.7792C358.087 84.3876 357.898 84.7301 357.709 85.0726C357.141 86.1 356.381 85.4548 356.229 84.9227ZM352.708 89.6805C352.024 89.3014 351.606 88.8458 351.454 88.3137C351.719 88.2373 351.984 88.1608 352.174 87.8184L353.235 87.5126L354.261 88.0813C353.882 88.7663 353.504 89.4512 352.708 89.6805ZM371.937 85.5833C370.609 85.9655 370.304 84.9014 370.152 84.3694C370.075 84.1033 370.265 83.7609 370.795 83.608C371.25 83.1891 372.159 82.3513 373.185 82.92L373.868 83.2992C374.173 84.3633 372.733 85.354 371.937 85.5833ZM346.193 97.0282L345.812 95.6981L347.935 95.0866L348.164 95.8846C347.975 96.2271 348.051 96.4931 348.051 96.4931L346.193 97.0282ZM374.066 89.0019L372.397 89.1945C372.321 88.9285 372.51 88.586 372.776 88.5096L373.838 88.2038L373.914 88.4698C373.914 88.4698 374.179 88.3934 374.255 88.6594L374.066 89.0019ZM304.29 110.246L304.254 111.121L303.457 111.35L302.356 110.516L304.29 110.246ZM351.392 98.1229L349.8 98.5816L349.571 97.7835L351.164 97.3248L351.392 98.1229ZM345.293 103.911C344.762 104.064 344.573 104.406 344.307 104.483L343.508 102.697L344.53 101.251C344.872 101.44 346.959 101.703 347.035 101.97C347.188 102.502 346.733 102.92 346.013 103.416C346.013 103.416 345.748 103.492 345.293 103.911ZM361.748 97.1567C361.217 97.3096 360.952 97.3861 360.763 97.7285C360.763 97.7285 360.687 97.4625 360.345 97.2729C360.345 97.2729 360.269 97.0069 360.458 96.6644C360.534 96.9305 360.799 96.854 361.065 96.7776L362.127 96.4718C362.203 96.7378 362.014 97.0803 361.748 97.1567ZM306.118 114.616C305.511 114.503 304.904 114.39 304.562 114.2L305.66 113.02L307.863 114.689C307.332 114.842 306.725 114.729 306.118 114.616ZM356.403 99.5601L356.137 99.6365L355.985 99.1045C356.515 98.9516 356.781 98.8752 356.857 99.1412C356.592 99.2176 356.592 99.2176 356.403 99.5601ZM305.59 116.784C304.794 117.013 304.226 118.041 304.568 118.23L304.644 118.496L302.823 118.157C302.328 117.435 302.441 116.827 302.743 115.876C302.743 115.876 303.009 115.799 303.198 115.457L303.994 115.228C304.26 115.151 304.525 115.075 304.867 115.264L305.816 115.567L306.576 116.212C306.386 116.555 306.121 116.631 305.59 116.784ZM348.753 108.963L348.143 106.834C348.826 107.214 349.168 107.403 349.092 107.137C349.699 107.25 350.041 107.44 350.193 107.972C350.498 109.036 349.891 108.923 349.095 109.152C348.829 109.229 348.829 109.229 348.753 108.963ZM351.106 109.149L350.877 108.351C350.648 107.553 351.368 107.058 352.164 106.828C352.772 106.941 353.19 107.397 353.342 107.929L352.698 108.69L351.106 109.149ZM346.483 113.072C345.156 113.454 344.207 113.152 343.978 112.354L346.101 111.742L346.483 113.072ZM351.716 111.277L352.778 110.972L353.159 112.302L352.097 112.607L351.716 111.277ZM325.362 120.594C325.551 120.252 325.817 120.175 325.817 120.175C326.082 120.099 326.424 120.288 326.424 120.288L326.689 120.212C326.235 120.631 326.046 120.973 325.78 121.05L325.628 120.518L325.362 120.594ZM292.335 132.696C291.994 132.507 291.728 132.583 291.463 132.66C291.197 132.736 290.855 132.546 290.703 132.014L292.561 131.479C292.637 131.745 292.637 131.745 292.903 131.669C292.979 131.935 292.79 132.277 292.335 132.696ZM323.513 127.174C322.982 127.327 322.717 127.404 322.109 127.29L321.957 126.758L322.524 125.731C323.663 125.691 324.611 125.994 324.688 126.26C324.575 126.868 324.044 127.021 323.513 127.174ZM354.346 119.448C354.27 119.182 354.193 118.915 354.383 118.573C354.306 118.307 354.495 117.965 354.685 117.622C355.216 117.469 355.823 117.582 356.43 117.695C356.052 118.38 355.408 119.142 354.346 119.448ZM310.972 138.561L311.351 137.876L311.427 138.142L311.769 138.332L310.972 138.561ZM361.98 125.025C361.715 125.101 361.449 125.178 361.107 124.988L360.766 124.799L360.235 124.951C360.424 124.609 360.424 124.609 360.689 124.533C360.689 124.533 360.879 124.19 361.144 124.114C361.144 124.114 361.333 123.771 361.599 123.695C361.94 123.884 362.017 124.15 362.093 124.416C361.828 124.493 361.904 124.759 361.98 125.025ZM336.078 131.908L335.7 132.593C334.903 132.822 334.827 132.556 334.94 131.947L336.078 131.908ZM302.484 145.037L300.36 145.649C300.095 145.725 300.018 145.459 299.942 145.193C299.789 144.661 300.244 144.242 300.699 143.823C301.04 144.013 301.571 143.86 301.837 143.784C302.444 143.897 302.786 144.086 302.862 144.352C302.862 144.352 302.938 144.618 302.484 145.037ZM325.844 138.31L325.161 137.931L325.539 137.246C325.804 137.17 326.412 137.283 327.019 137.396C326.83 137.739 326.375 138.158 325.844 138.31ZM329.942 138.57C329.676 138.647 329.6 138.381 329.448 137.849C329.789 138.038 330.32 137.885 330.586 137.809C331.117 137.656 331.648 137.503 331.989 137.693C331.535 138.112 331.269 138.188 331.004 138.265L329.942 138.57ZM339.547 143.004L339.016 143.157C337.954 143.463 336.853 142.628 336.777 142.362C336.624 141.83 336.548 141.564 336.737 141.222C338.028 141.714 339.242 141.94 340.304 141.634C340.002 142.585 339.813 142.928 339.547 143.004ZM336.63 145.86C336.365 145.937 336.365 145.937 336.441 146.203L335.645 146.432C335.114 146.585 334.772 146.395 334.43 146.206C334.165 146.282 333.405 145.637 334.125 145.141C334.391 145.065 334.58 144.723 334.845 144.646C335.376 144.493 335.642 144.417 335.718 144.683L336.249 144.53L336.478 145.328C336.819 145.518 336.554 145.594 336.63 145.86ZM327.757 148.991C327.757 148.991 327.681 148.725 327.946 148.649C327.794 148.117 328.059 148.04 328.059 148.04C328.135 148.306 328.401 148.23 328.743 148.419C329.008 148.343 329.274 148.266 329.881 148.38C329.426 148.799 328.63 149.028 327.757 148.991ZM310.276 155.177C310.353 155.443 310.164 155.785 310.164 155.785C310.164 155.785 309.822 155.596 309.556 155.672C309.291 155.749 308.949 155.559 308.684 155.635L308.455 154.837L310.048 154.379L310.276 155.177ZM366.563 145.016L366.032 145.169C365.956 144.903 365.69 144.98 365.69 144.98L365.385 143.916C365.953 142.888 366.294 143.078 366.789 143.799C366.789 143.799 367.054 143.723 367.472 144.179C367.625 144.711 367.359 144.787 366.563 145.016ZM364.863 150.114C365.168 151.178 365.056 151.786 364.525 151.939C362.932 152.398 361.983 152.095 361.678 151.031C361.525 150.499 362.965 149.508 363.496 149.355C364.824 148.973 364.787 149.848 364.863 150.114ZM353.68 156.214C353.757 156.48 353.568 156.822 353.378 157.165C352.317 157.47 351.975 157.281 351.822 156.749C351.746 156.483 351.67 156.217 351.935 156.14L351.859 155.874L353.186 155.492C353.186 155.492 353.262 155.758 353.528 155.682L353.68 156.214Z" fill="white"/>
</g>
</svg>
