<svg width="34" height="47" viewBox="0 0 34 47" fill="none" xmlns="http://www.w3.org/2000/svg">
<path opacity="0.3" d="M16.4995 1.41503e-09C12.1368 0.00371879 7.95279 1.7692 4.86134 4.91083C1.76989 8.05246 0.0222005 12.3149 0 16.7673C0 23.4428 3.66967 29.0319 6.35889 33.1058L6.84911 33.8491C9.52472 37.8067 12.395 41.6234 15.449 45.2846L16.5135 46.5568L17.578 45.2846C20.6316 41.6231 23.5019 37.8064 26.1779 33.8491L26.6681 33.0915C29.3433 29.0176 33.013 23.4428 33.013 16.7673C32.9908 12.3125 31.2412 8.04783 28.1467 4.90579C25.0522 1.76375 20.8646 -5.76865e-05 16.4995 1.41503e-09ZM16.4995 24.3004C14.6822 24.3004 12.9058 23.7505 11.3948 22.7201C9.88383 21.6897 8.70616 20.2252 8.01073 18.5118C7.3153 16.7984 7.13334 14.9129 7.48787 13.0939C7.8424 11.275 8.71749 9.60413 10.0025 8.29271C11.2875 6.9813 12.9246 6.08822 14.707 5.7264C16.4893 5.36458 18.3367 5.55028 20.0157 6.26001C21.6946 6.96974 23.1296 8.17163 24.1392 9.71369C25.1488 11.2557 25.6877 13.0687 25.6877 14.9233C25.6877 17.4103 24.7196 19.7954 22.9965 21.554C21.2734 23.3125 18.9363 24.3004 16.4995 24.3004Z" fill="white"/>
</svg>
