<svg width="150" height="150" viewBox="0 0 150 150" fill="none" xmlns="http://www.w3.org/2000/svg">
<path d="M75 150C116.421 150 150 116.421 150 75C150 33.5786 116.421 0 75 0C33.5786 0 0 33.5786 0 75C0 116.421 33.5786 150 75 150Z" fill="#3B9CB7"/>
<path d="M121.591 54.6456H116.49V22.0451H121.591C123.592 22.0451 125.214 23.6672 125.214 25.6681V51.0223C125.214 53.0235 123.592 54.6456 121.591 54.6456Z" fill="#151A1C"/>
<path d="M27.9736 35.2864H34.3887V22.0451H27.9736C26.6983 22.0451 25.6646 23.0789 25.6646 24.3542V32.9773C25.6646 34.2527 26.6983 35.2864 27.9736 35.2864Z" fill="#151A1C"/>
<path d="M27.9736 50.4527H34.3887V37.2114H27.9736C26.6983 37.2114 25.6646 38.2451 25.6646 39.5204V48.1436C25.6646 49.4189 26.6983 50.4527 27.9736 50.4527Z" fill="#151A1C"/>
<path d="M121.841 16.9344V133.576C109.005 143.856 92.7225 150 75.001 150C57.2766 150 40.9939 143.853 28.1582 133.573V16.9344C28.1582 16.76 28.1613 16.5885 28.1674 16.4171C28.4398 8.9171 34.6051 2.92322 42.1694 2.92322H107.83C115.394 2.92322 121.559 8.9171 121.832 16.414C121.838 16.5855 121.841 16.76 121.841 16.9344Z" fill="#2F373B"/>
<path d="M118.023 31.2181V124.625C118.023 126.542 117.172 128.256 115.831 129.41C114.723 130.374 113.275 130.956 111.695 130.956H38.3057C34.8098 130.956 31.9751 128.121 31.9751 124.625V31.2181C31.9751 27.7221 34.8098 24.8875 38.3057 24.8875H111.695C115.191 24.8875 118.023 27.7221 118.023 31.2181Z" fill="#55D485"/>
<path d="M87.2447 16.0142H62.7549C61.4866 16.0142 60.459 14.9862 60.459 13.7183C60.459 12.4503 61.4866 11.4224 62.7549 11.4224H87.2447C88.513 11.4224 89.5406 12.4503 89.5406 13.7183C89.5406 14.9862 88.513 16.0142 87.2447 16.0142Z" fill="#151A1C"/>
<path d="M74.9997 145.991C77.5356 145.991 79.5912 143.936 79.5912 141.4C79.5912 138.864 77.5356 136.808 74.9997 136.808C72.4639 136.808 70.4082 138.864 70.4082 141.4C70.4082 143.936 72.4639 145.991 74.9997 145.991Z" fill="#151A1C"/>
<path d="M92.0271 38.7762L74.9975 120.884L31.9751 104.241V31.2181C31.9751 27.7221 34.8098 24.8875 38.3057 24.8875H63.9924L92.0271 38.7762Z" fill="#10995B"/>
<path d="M74.9999 120.885L100.274 77.1089C111.507 57.653 97.4659 33.3331 75.0002 33.3331C52.5345 33.3331 38.4935 57.653 49.7264 77.1089L74.9999 120.885Z" fill="#F75454"/>
<path d="M90.203 62.516C90.203 69.6762 85.253 75.6793 78.5888 77.2926C77.4377 77.5742 76.2347 77.7211 74.9979 77.7211C66.6041 77.7211 59.7959 70.913 59.7959 62.516C59.7959 54.1221 66.6041 47.314 74.9979 47.314C76.2347 47.314 77.4377 47.4609 78.5888 47.7425C85.253 49.3558 90.203 55.3589 90.203 62.516Z" fill="#BCE6F5"/>
<path d="M90.204 62.516C90.204 69.6762 85.254 75.6793 78.5897 77.2926C71.9255 75.6793 66.9785 69.6762 66.9785 62.516C66.9785 55.3589 71.9255 49.3558 78.5897 47.7426C85.254 49.3558 90.204 55.3589 90.204 62.516Z" fill="white"/>
</svg>
