<svg width="150" height="150" viewBox="0 0 150 150" fill="none" xmlns="http://www.w3.org/2000/svg">
<path d="M150 75C150 83.5531 148.567 91.7755 145.929 99.4316C144.404 103.867 142.476 108.11 140.183 112.123C138.673 114.771 137.005 117.315 135.196 119.746C134.238 121.035 133.237 122.29 132.199 123.511C131.602 124.212 130.996 124.901 130.374 125.581C124.944 131.526 118.561 136.595 111.474 140.547C100.681 146.568 88.2398 150 75 150C61.7571 150 49.3163 146.568 38.5194 140.544C31.4235 136.589 25.0408 131.513 19.6041 125.559C18.9888 124.889 18.3888 124.203 17.801 123.511C16.7602 122.287 15.7592 121.032 14.801 119.743C12.998 117.321 11.3357 114.784 9.83265 112.148C7.53673 108.129 5.59898 103.88 4.07143 99.4347V99.4316C1.43265 91.7724 0 83.5531 0 75C0 69.8755 0.514286 64.8735 1.49388 60.0398C8.42755 25.7847 38.7031 0 75 0C111.297 0 141.572 25.7847 148.506 60.0398C149.486 64.8735 150 69.8755 150 75Z" fill="#3B9CB7"/>
<path d="M150 75C150 83.5531 148.567 91.7755 145.929 99.4316C144.404 103.867 142.476 108.11 140.183 112.123C138.673 114.771 137.005 117.315 135.196 119.746C134.238 121.035 133.237 122.29 132.199 123.511C131.602 124.212 130.996 124.901 130.374 125.581C124.944 131.526 118.561 136.595 111.474 140.547C100.681 146.568 88.2398 150 75 150C61.7571 150 49.3163 146.568 38.5194 140.544C31.4235 136.589 25.0408 131.513 19.6041 125.559C18.9888 124.889 18.3888 124.203 17.801 123.511C16.7602 122.287 15.7592 121.032 14.801 119.743C12.998 117.321 11.3357 114.784 9.83265 112.148C7.53673 108.129 5.59898 103.88 4.07143 99.4347V99.4316C1.43265 91.7724 0 83.5531 0 75C0 69.8755 0.514286 64.8735 1.49388 60.0398H148.506C149.486 64.8735 150 69.8755 150 75Z" fill="#304F75"/>
<path d="M95.0578 108.05C81.6858 107.601 68.3134 107.601 54.9414 108.05C50.3624 108.204 46.6127 110.429 46.1789 113.306C45.495 117.842 45.495 122.379 46.1789 126.916C46.6124 129.792 50.3624 132.018 54.9411 132.172C68.3131 132.62 81.6855 132.62 95.0575 132.172C99.6365 132.018 103.386 129.792 103.82 126.916C104.504 122.379 104.504 117.842 103.82 113.306C103.386 110.429 99.6365 108.203 95.0578 108.05Z" fill="#151A1C"/>
<path d="M38.7334 132.392C38.7243 135.11 38.6538 137.826 38.5191 140.544C29.213 135.355 21.1283 128.241 14.8008 119.743C15.7589 117.787 17.7151 116.409 20.0079 116.238C24.214 115.919 28.4202 115.919 32.6294 116.238C35.7763 116.474 38.2896 118.984 38.461 122.137C38.6538 125.556 38.7457 128.972 38.7334 132.392Z" fill="#151A1C"/>
<path d="M135.196 119.746C128.869 128.244 120.781 135.358 111.475 140.547C111.172 134.412 111.193 128.275 111.533 122.137C111.707 118.984 114.217 116.474 117.367 116.238C121.574 115.919 125.78 115.919 129.986 116.238C132.282 116.409 134.238 117.79 135.196 119.746Z" fill="#151A1C"/>
<path d="M143.018 53.2371H128.972V67.1996H143.018C146.874 67.1996 149.999 64.0741 149.999 60.2185C149.999 56.3629 146.874 53.2371 143.018 53.2371Z" fill="#D12C50"/>
<path d="M99.4209 17.2687H52.8067C48.8244 17.2687 45.5957 20.4971 45.5957 24.4798V26.4442H106.632V24.4798C106.632 20.4971 103.403 17.2687 99.4209 17.2687Z" fill="#D12C50"/>
<path d="M6.98112 53.2371H21.0276V67.1996H6.98112C3.12551 67.1996 0 64.0741 0 60.2185C0 56.3629 3.12551 53.2371 6.98112 53.2371Z" fill="#D12C50"/>
<path d="M128.63 73.1172C122.942 73.4785 117.255 73.7785 111.57 74.0203C82.2466 75.2754 52.92 74.9723 23.5966 73.1172C22.3537 62.3325 24.5915 51.2846 28.9996 40.0346C31.8098 32.8529 38.5966 27.9887 46.3078 27.7131C63.3925 27.1009 80.4772 27.0152 97.5619 27.4591C100.348 27.5264 103.133 27.6121 105.919 27.7131C113.633 27.9887 120.417 32.8529 123.23 40.0346C127.635 51.2846 129.876 62.3325 128.63 73.1172Z" fill="white"/>
<path d="M111.57 74.0203C82.2466 75.2754 52.92 74.9723 23.5966 73.1172C22.3537 62.3325 24.5915 51.2846 28.9996 40.0346C31.8098 32.8529 38.5966 27.9887 46.3078 27.7131C63.3925 27.1009 80.4772 27.0152 97.5619 27.4591C100.498 30.0213 102.839 33.2938 104.321 37.0713C109.228 49.607 112.023 61.9376 111.57 74.0203Z" fill="#BCE6F5"/>
<path d="M133.133 73.6442L124.01 72.5933C125.077 63.3285 123.405 53.2249 118.9 41.7062C116.747 36.203 111.574 32.5112 105.721 32.3008C86.0735 31.5949 66.1505 31.5949 46.5047 32.3008C40.6517 32.5112 35.4785 36.203 33.3256 41.7062C28.8197 53.2249 27.148 63.3282 28.2155 72.5933L19.0921 73.6442C17.8489 62.8525 19.7074 51.3111 24.7734 38.3605C28.2605 29.446 36.6611 23.4649 46.1747 23.123C66.0403 22.4091 86.1846 22.4091 106.051 23.123C115.565 23.4649 123.965 29.446 127.453 38.3605C132.518 51.3111 134.377 62.8525 133.133 73.6442Z" fill="#F75454"/>
<path d="M125.889 72.8039L122.239 72.3829C123.272 63.424 121.636 53.6084 117.238 42.3762C115.349 37.5548 110.816 34.3206 105.688 34.1366C86.0633 33.4325 66.1629 33.4325 46.5383 34.1366C41.4107 34.3206 36.8773 37.5551 34.9889 42.3765C30.5902 53.6094 28.9543 63.4249 29.9874 72.3832L26.3378 72.8042C25.2346 63.2342 26.9452 52.8431 31.5683 41.0369C33.9909 34.8517 39.8149 30.7022 46.4066 30.4656C66.1179 29.7581 86.1077 29.7581 105.82 30.4656C112.411 30.7022 118.235 34.8517 120.658 41.0366C125.282 52.8422 126.992 63.2332 125.889 72.8039Z" fill="#D12C50"/>
<path d="M145.929 99.4316C144.404 103.867 142.476 108.11 140.183 112.123C138.674 114.771 137.005 117.315 135.196 119.746C134.238 121.035 133.237 122.29 132.199 123.511C94.0685 125.47 55.9348 125.47 17.8011 123.511C16.7603 122.287 15.7593 121.032 14.8011 119.743C12.998 117.321 11.3358 114.784 9.83274 112.148C7.53682 108.129 5.59907 103.88 4.07152 99.4347V99.4316C3.99499 97.3102 4.01641 95.1857 4.13886 93.0643C4.34703 89.3418 4.85825 85.6163 5.6756 81.8939C5.85315 81.0888 6.04295 80.2806 6.24805 79.4755C6.66131 77.8439 7.40213 76.3622 8.3909 75.0888C10.5093 72.3551 13.7664 70.5857 17.3725 70.399C55.7909 68.4123 94.2093 68.4123 132.625 70.399C136.234 70.5857 139.491 72.3551 141.609 75.0888C142.598 76.3622 143.339 77.8439 143.752 79.4755C145.445 86.1276 146.171 92.7796 145.929 99.4316Z" fill="#F75454"/>
<path d="M95.8571 90.9013C81.0289 89.6057 66.2009 89.6057 51.3726 90.9013C48.1231 91.185 45.3628 93.4161 44.4482 96.5471C42.5046 103.2 43.1842 109.854 46.4878 116.507C64.5726 118.434 82.6571 118.434 100.742 116.507C104.045 109.854 104.725 103.2 102.782 96.5471C101.867 93.4161 99.1066 91.185 95.8571 90.9013Z" fill="#D12C50"/>
<path d="M18.5052 92.8653C17.9174 103.169 19.5429 113.477 23.3756 123.784C21.5174 123.698 19.6593 123.609 17.8011 123.511C16.7603 122.287 15.7593 121.032 14.8011 119.743C12.998 117.321 11.3358 114.784 9.83274 112.148C7.53682 108.129 5.59907 103.877 4.07152 99.4317C3.99499 97.3102 4.01641 95.1857 4.13886 93.0643C4.34703 89.3419 4.85825 85.6163 5.6756 81.8939C5.85315 81.0888 6.04295 80.2806 6.24805 79.4755C7.55213 74.3419 12.0858 70.6745 17.3725 70.399C21.0705 70.2092 24.7685 70.0347 28.4664 69.8817C24.7042 71.3357 21.7532 74.5225 20.7215 78.5817C20.5072 79.4266 20.3083 80.2776 20.1215 81.1225C19.2613 85.0347 18.7225 88.9531 18.5052 92.8653Z" fill="#D12C50"/>
<path d="M140.183 112.124C138.674 114.771 137.005 117.315 135.196 119.746C133.687 121.773 132.077 123.719 130.375 125.581C98.2289 125.924 66.0891 125.963 33.9463 125.697C29.1646 125.657 24.3861 125.611 19.6044 125.559C17.9085 123.704 16.3044 121.763 14.8014 119.743C12.9983 117.321 11.3361 114.784 9.83301 112.148C17.8748 112.047 25.9167 111.958 33.9585 111.894C69.3677 111.603 104.774 111.68 140.183 112.124Z" fill="#83BDD6"/>
<path d="M140.183 112.124C138.674 114.771 137.005 117.315 135.196 119.746C133.687 121.773 132.077 123.719 130.375 125.581C98.2286 125.924 66.0888 125.963 33.9459 125.697C31.8398 125.207 29.9174 124.062 28.5368 122.357C26.6082 119.985 26.6082 117.609 28.5368 115.234C29.9204 113.526 31.8459 112.381 33.9582 111.894C69.3674 111.603 104.774 111.68 140.183 112.124Z" fill="#BCE6F5"/>
<path d="M141.609 75.0888C139.488 77.8225 136.233 79.5888 132.627 79.7755C94.209 81.7622 55.7906 81.7622 17.3753 79.7755C13.7661 79.5888 10.5121 77.8225 8.39062 75.0888C10.509 72.3551 13.7661 70.5857 17.3723 70.399C55.7906 68.4123 94.209 68.4123 132.624 70.399C136.233 70.5857 139.491 72.3551 141.609 75.0888Z" fill="#FF8D8D"/>
<path d="M36.0879 96.1274C36.0879 90.1978 31.2812 85.3911 25.3516 85.3911C19.422 85.3911 14.6152 90.1978 14.6152 96.1274C14.6152 102.057 19.422 101.319 25.3516 101.319C31.2812 101.319 36.0879 102.057 36.0879 96.1274Z" fill="#FFE05C"/>
<path d="M135.386 96.1272C135.386 90.1976 130.579 85.3909 124.649 85.3909C118.72 85.3909 113.913 90.1976 113.913 96.1272C113.913 102.057 118.72 101.318 124.649 101.318C130.579 101.318 135.386 102.057 135.386 96.1272Z" fill="#FFE05C"/>
</svg>
