<svg width="150" height="150" viewBox="0 0 150 150" fill="none" xmlns="http://www.w3.org/2000/svg">
<path d="M150 75C150 116.421 116.421 150 75 150C33.5786 150 0 116.421 0 75C0 44.7337 17.9297 18.6521 43.7479 6.80215C53.2623 2.43369 63.8449 0 75 0C99.2663 0 120.842 11.5254 134.553 29.4C144.242 42.0366 150 57.8479 150 75Z" fill="#F75454"/>
<path d="M134.553 29.4C134.18 55.6102 112.815 76.7417 86.5164 76.7417C59.9849 76.7417 38.4766 55.2334 38.4766 28.7019C38.4766 20.8131 40.3776 13.3682 43.748 6.80186C53.2624 2.43369 63.845 0 75.0001 0C99.2664 0 120.842 11.5254 134.553 29.4Z" fill="#3B9CB7"/>
<path d="M109.452 41.1483L105.276 47.1088C100.845 53.4334 92.1262 54.9683 85.8018 50.5374L61.0498 33.1963L81.2714 4.33301L106.023 21.6741C112.348 26.105 113.883 34.824 109.452 41.1483Z" fill="#FFE461"/>
<path d="M90.5966 43.6934L65.8445 26.3523L61.0498 33.1963L85.8018 50.5375C92.1265 54.9683 100.845 53.4335 105.276 47.1088L109.452 41.1484C109.555 41.0001 109.653 40.8496 109.75 40.699C105.23 46.6556 96.7724 48.0206 90.5966 43.6934Z" fill="#E8CA4D"/>
<path d="M128.208 62.5028L131.752 57.4434L104.079 38.0548L100.534 43.1142L128.208 62.5028Z" fill="#FFE461"/>
<path d="M129.35 54.3011L124.433 61.3194C122.741 63.7343 123.327 67.0633 125.742 68.7555L129.515 71.3987L140.558 55.6352L136.786 52.9924C134.371 51.2999 131.042 51.8861 129.35 54.3011Z" fill="#FFE461"/>
<path d="M75.1242 1.49775L56.2848 28.3882C55.1721 29.9767 55.5574 32.1666 57.1458 33.2793C58.7343 34.392 60.9243 34.0067 62.037 32.4183L80.8766 5.52783C81.9893 3.93935 81.604 1.74941 80.0156 0.636711C78.4271 -0.476571 76.2374 -0.0910235 75.1242 1.49775Z" fill="#FFE461"/>
<path d="M63.3843 24.3767C61.7959 23.264 61.41 21.0741 62.5233 19.4856L56.2863 28.388C55.1736 29.9765 55.5588 32.1665 57.1473 33.2792C58.7358 34.3918 60.9257 34.0066 62.0384 32.4181L68.2754 23.5157C67.1625 25.1042 64.9728 25.4894 63.3843 24.3767Z" fill="#E8CA4D"/>
<path d="M122.653 52.3315L103.764 100.176L95.8565 97.0543L92.8428 95.8617L111.726 48.0175C112.919 45.0038 116.33 43.5208 119.349 44.7134C119.983 44.966 120.553 45.3096 121.036 45.7397C122.868 47.3191 123.593 49.9461 122.653 52.3315Z" fill="#E5BFA3"/>
<path d="M122.654 52.3317L103.765 100.176L95.8574 97.0545L114.671 49.382C115.702 46.782 118.383 45.3206 121.037 45.7399C122.869 47.3193 123.594 49.9463 122.654 52.3317Z" fill="#F9D6B9"/>
<path d="M103.767 100.173L92.8428 95.8608L80.2686 116.082L89.5826 135.727L103.767 100.173Z" fill="#34ABE0"/>
<path d="M89.5808 115.632V148.583C87.8481 148.923 86.0971 149.207 84.3278 149.424H65.6695C57.646 148.429 50.0145 146.167 42.9858 142.843C41.838 142.301 40.7054 141.729 39.5909 141.132C36.7072 139.583 33.9337 137.853 31.292 135.955C32.0481 124.852 41.1003 116.027 52.3011 115.632C52.5612 115.619 52.8246 115.613 53.0909 115.613L89.5808 115.632Z" fill="#34ABE0"/>
<path d="M89.581 128.348V148.583C84.8639 149.513 79.9903 150 75.0005 150C63.5483 150 52.6933 147.435 42.9863 142.843V128.348C42.9863 127.243 43.1272 126.171 43.3903 125.152C44.5262 120.762 47.9425 117.291 52.3016 116.082C53.3882 115.773 54.5331 115.613 55.7211 115.613H76.8497C78.0345 115.613 79.1794 115.772 80.2692 116.082C85.6414 117.573 89.581 122.501 89.581 128.348Z" fill="#34ABE0"/>
<path d="M92.8412 95.8608L82.9301 111.443C81.2733 114.048 78.3999 115.625 75.3129 115.622C67.4733 115.615 53.0909 115.612 53.0909 115.612C52.8249 115.612 52.5592 115.619 52.2993 115.631V116.659C52.2993 124.367 58.4212 130.829 66.1283 130.913C72.5218 130.983 77.9487 126.74 79.684 120.92C83.0654 119.344 85.8246 116.685 87.5244 113.364L95.7844 97.227L92.8412 95.8608Z" fill="#279FC9"/>
<path d="M61.4412 115.613C61.1749 115.613 60.9086 115.62 60.6484 115.632C53.476 115.886 47.1821 119.599 43.3894 125.152C40.9923 128.657 39.5904 132.897 39.5904 137.464V141.132C36.7067 139.583 33.9332 137.853 31.2915 135.955C32.0477 124.852 41.0998 116.027 52.3006 115.632C52.5607 115.62 52.8241 115.613 53.0904 115.613H61.4412Z" fill="#279FC9"/>
<path d="M76.5553 105.896V116.93C76.5553 122.603 71.9565 127.201 66.2835 127.201C60.6104 127.201 56.0117 122.602 56.0117 116.93V105.896H76.5553Z" fill="#E5BFA3"/>
<path d="M44.1094 94.1936C47.6156 94.1936 50.458 91.3512 50.458 87.845C50.458 84.3387 47.6156 81.4963 44.1094 81.4963C40.6031 81.4963 37.7607 84.3387 37.7607 87.845C37.7607 91.3512 40.6031 94.1936 44.1094 94.1936Z" fill="#E5BFA3"/>
<path d="M88.4605 94.1936C91.9667 94.1936 94.8091 91.3512 94.8091 87.845C94.8091 84.3387 91.9667 81.4963 88.4605 81.4963C84.9542 81.4963 82.1118 84.3387 82.1118 87.845C82.1118 91.3512 84.9542 94.1936 88.4605 94.1936Z" fill="#E5BFA3"/>
<path d="M89.1536 69.723L43.4121 67.2881V92.8027C43.4121 105.434 53.6517 115.673 66.2827 115.673C78.9141 115.673 89.1533 105.434 89.1533 92.8027V69.723H89.1536Z" fill="#F9D6B9"/>
<path d="M66.2835 94.8743C65.0059 94.8743 63.9702 93.8386 63.9702 92.561V74.4192H68.5971V92.561C68.5968 93.8386 67.5611 94.8743 66.2835 94.8743Z" fill="#E5BFA3"/>
<path d="M52.5395 92.8024V67.7738L43.4136 67.2881V92.8027C43.4136 105.434 53.6531 115.673 66.2842 115.673C67.8469 115.673 69.3726 115.516 70.8472 115.217C60.4025 113.102 52.5395 103.871 52.5395 92.8024Z" fill="#E5BFA3"/>
<path d="M91.9368 68.8685V80.3898C91.9368 81.3267 91.5574 82.1742 90.9442 82.7877C90.3132 83.4196 89.4346 83.8022 88.4687 83.7803C86.6145 83.7387 85.1546 82.1757 85.1546 80.3215V78.5801C85.1546 77.2005 84.5956 75.9527 83.6912 75.048C82.7868 74.1437 81.5391 73.5847 80.1592 73.5847C78.007 73.5847 75.9129 74.3071 74.2351 75.6568C72.0598 77.4067 69.2941 78.4547 66.283 78.4547C63.273 78.4547 60.5074 77.4065 58.3321 75.6568C58.0447 75.4248 57.7444 75.2127 57.4333 75.019C57.4298 75.0158 57.4254 75.0132 57.4216 75.0108C56.8301 74.642 56.2017 74.3429 55.5478 74.1147C54.5437 73.7657 53.4826 73.5847 52.4054 73.5847C49.6482 73.5847 47.4126 75.8235 47.4126 78.5821V80.3909C47.4126 81.3267 47.0332 82.1754 46.4188 82.7889C45.8054 83.4023 44.9578 83.7814 44.0209 83.7814C42.1482 83.7814 40.6304 82.2636 40.6304 80.39V68.869C40.6304 58.781 48.8074 50.603 58.8955 50.603H73.6702C83.7586 50.6024 91.9368 58.7804 91.9368 68.8685Z" fill="#5C5E70"/>
<path d="M70.775 50.6018C60.686 50.6018 52.5116 58.7809 52.5116 68.8696V73.5896C52.4753 73.5849 52.4431 73.5849 52.4067 73.5849C49.647 73.5849 47.4128 75.8238 47.4128 78.5835V80.3885C47.4128 81.3251 47.0334 82.175 46.4214 82.7873C45.8047 83.3997 44.9595 83.7788 44.0226 83.7788C42.149 83.7788 40.6323 82.2621 40.6323 80.3885V68.8696C40.6323 58.7806 48.8067 50.6018 58.8957 50.6018H70.775Z" fill="#474A59"/>
<path d="M74.8709 97.3062C74.8709 98.1534 74.7467 98.9717 74.4983 99.739C74.1405 100.923 73.5118 101.996 72.6865 102.88C71.1889 104.51 69.0338 105.525 66.6523 105.525C64.2707 105.525 62.1156 104.51 60.618 102.88C59.7924 101.996 59.1643 100.923 58.8063 99.739C58.5581 98.9717 58.4336 98.1537 58.4336 97.3062H74.8709Z" fill="white"/>
<path d="M80.2506 88.3626C80.2506 86.0634 78.3867 84.1992 76.0872 84.1992C73.788 84.1992 71.9238 86.0631 71.9238 88.3626" fill="#5C5E70"/>
<path d="M60.6432 88.3626C60.6432 86.0634 58.7793 84.1992 56.4798 84.1992C54.1806 84.1992 52.3164 86.0631 52.3164 88.3626" fill="#5C5E70"/>
<path d="M125.69 50.2429C125.69 55.3043 121.589 59.4049 116.528 59.4049C115.994 59.4049 115.468 59.3589 114.961 59.2669C110.65 58.5298 107.372 54.7716 107.372 50.2432C107.372 45.1883 111.472 41.0876 116.528 41.0876C119.496 41.0876 122.135 42.4962 123.801 44.6879C124.985 46.2281 125.69 48.15 125.69 50.2429Z" fill="#E5BFA3"/>
<path d="M125.688 50.2431C125.688 55.3044 121.587 59.4051 116.526 59.4051C115.993 59.4051 115.466 59.3591 114.959 59.2671C113.775 57.7269 113.07 55.7983 113.07 53.7054C113.07 48.644 117.171 44.5498 122.226 44.5498C122.766 44.5498 123.292 44.5958 123.799 44.6878C124.984 46.2282 125.688 48.1501 125.688 50.2431Z" fill="#F9D6B9"/>
<path d="M91.4263 98.5904L102.564 103.191L103.768 100.173L92.8431 95.8608" fill="#279FC9"/>
<path d="M103.126 28.6492C102.32 29.7997 100.734 30.0789 99.5832 29.2726L82.0271 16.9729C80.8766 16.167 80.5974 14.5811 81.4036 13.4306C82.2096 12.2802 83.7954 12.001 84.9459 12.8072L102.502 25.1069C103.652 25.9129 103.931 27.4987 103.126 28.6492Z" fill="#FCEBA7"/>
</svg>
