<svg width="150" height="150" viewBox="0 0 150 150" fill="none" xmlns="http://www.w3.org/2000/svg">
<path d="M75 150C116.421 150 150 116.421 150 75C150 33.5786 116.421 0 75 0C33.5786 0 0 33.5786 0 75C0 116.421 33.5786 150 75 150Z" fill="#F75454"/>
<path d="M121.591 54.6456H116.49V22.0451H121.591C123.592 22.0451 125.214 23.6673 125.214 25.6681V51.0224C125.214 53.0235 123.592 54.6456 121.591 54.6456Z" fill="#151A1C"/>
<path d="M27.9736 35.2864H34.3887V22.0451H27.9736C26.6983 22.0451 25.6646 23.0789 25.6646 24.3542V32.9774C25.6646 34.2527 26.6983 35.2864 27.9736 35.2864Z" fill="#151A1C"/>
<path d="M27.9736 50.4527H34.3887V37.2113H27.9736C26.6983 37.2113 25.6646 38.2451 25.6646 39.5204V48.1436C25.6646 49.4189 26.6983 50.4527 27.9736 50.4527Z" fill="#151A1C"/>
<path d="M121.841 16.9344V133.576C109.005 143.856 92.7225 150 75.0011 150C57.2766 150 40.9939 143.853 28.1582 133.573V16.9344C28.1582 16.7599 28.1613 16.5885 28.1674 16.417C28.4398 8.91704 34.6051 2.92316 42.1694 2.92316H107.83C115.394 2.92316 121.559 8.91704 121.832 16.414C121.838 16.5854 121.841 16.7599 121.841 16.9344Z" fill="#2F373B"/>
<path d="M118.023 31.2181V124.625C118.023 126.542 117.172 128.256 115.831 129.41C114.723 130.374 113.275 130.956 111.696 130.956H38.3057C34.8098 130.956 31.9751 128.121 31.9751 124.625V31.2181C31.9751 27.7222 34.8098 24.8875 38.3057 24.8875H111.696C115.191 24.8875 118.023 27.7222 118.023 31.2181Z" fill="white"/>
<path d="M87.2447 16.0142H62.7549C61.4866 16.0142 60.459 14.9862 60.459 13.7183C60.459 12.4503 61.4866 11.4223 62.7549 11.4223H87.2447C88.513 11.4223 89.5406 12.4503 89.5406 13.7183C89.5406 14.9862 88.513 16.0142 87.2447 16.0142Z" fill="#151A1C"/>
<path d="M74.9997 145.991C77.5356 145.991 79.5913 143.936 79.5913 141.4C79.5913 138.864 77.5356 136.808 74.9997 136.808C72.4639 136.808 70.4082 138.864 70.4082 141.4C70.4082 143.936 72.4639 145.991 74.9997 145.991Z" fill="#151A1C"/>
<path d="M118.023 31.2181V82.7446L60.166 24.8875H111.696C115.192 24.8875 118.023 27.7222 118.023 31.2181Z" fill="#3B9CB7"/>
</svg>
