<svg width="30" height="30" viewBox="0 0 30 30" fill="none" xmlns="http://www.w3.org/2000/svg">
<path d="M26.4327 22.4797C25.0877 23.6369 23.1384 24.4668 20.5848 24.9695C18.0312 25.4722 15.3996 25.6192 12.6901 25.4106L7.54386 29.1667V24.4715C5.84795 23.9593 4.52242 23.2954 3.56725 22.4797C2.43665 21.5122 1.55945 20.1226 0.935673 18.311C0.311891 16.4993 0 14.6497 0 12.7622C0 10.8747 0.311891 9.02507 0.935673 7.21341C1.55945 5.40176 2.44152 4.00745 3.58187 3.03049C4.72222 2.05352 6.35478 1.3042 8.47953 0.78252C10.6043 0.26084 12.7778 0 15 0C17.2222 0 19.3957 0.26084 21.5205 0.78252C23.6452 1.3042 25.2778 2.05352 26.4181 3.03049C27.5585 4.00745 28.4405 5.40176 29.0643 7.21341C29.6881 9.02507 30 10.8747 30 12.7622C30 14.6497 29.6881 16.4993 29.0643 18.311C28.4405 20.1226 27.5634 21.5122 26.4327 22.4797ZM18.6842 15.5081L20.5848 15.8211C20.4289 13.5447 19.5273 11.6003 17.8801 9.9878C16.2329 8.37534 14.2398 7.49322 11.9006 7.34146L12.2222 9.19106C13.8986 9.39973 15.3411 10.0921 16.5497 11.2683C17.7583 12.4444 18.4698 13.8577 18.6842 15.5081ZM12.5439 11.0976L12.8947 13.1463C13.6745 13.5257 14.2495 14.0854 14.6199 14.8252L16.7251 15.1667C16.4912 14.1612 15.9942 13.2934 15.2339 12.563C14.4737 11.8327 13.577 11.3442 12.5439 11.0976ZM9.41521 12.7764V10.9553C9.41521 10.6328 9.29337 10.3103 9.04971 9.9878C8.80604 9.66531 8.54776 9.43293 8.27485 9.29065C8.00195 9.14837 7.79727 9.13415 7.66082 9.24797L6.31579 10.5854C5.55556 11.3252 5.44347 12.4776 5.97953 14.0427C6.51559 15.6077 7.53899 17.1253 9.04971 18.5955C10.5604 20.0657 12.1199 21.0617 13.7281 21.5833C15.3363 22.105 16.5107 21.9959 17.2515 21.2561L18.6257 19.9187C18.7622 19.8049 18.7573 19.6104 18.6111 19.3354C18.4649 19.0603 18.2261 18.8089 17.8947 18.5813C17.5634 18.3537 17.232 18.2398 16.9006 18.2398H15.0292L13.9474 19.1504C13.0897 18.9228 12.0224 18.1877 10.7456 16.9451C9.46881 15.7026 8.71345 14.6545 8.47953 13.8008L9.41521 12.7764ZM11.2865 3.67073L11.5789 5.52033C13.5283 5.55827 15.3314 6.05623 16.9883 7.01423C18.6452 7.97222 19.961 9.25271 20.9357 10.8557C21.9103 12.4587 22.4269 14.2087 22.4854 16.1057L24.386 16.4187C24.386 14.6924 24.04 13.042 23.348 11.4675C22.6559 9.89295 21.7251 8.53658 20.5556 7.39837C19.386 6.26016 17.9922 5.35434 16.3743 4.68089C14.7563 4.00745 13.0604 3.67073 11.2865 3.67073Z" fill="white"/>
</svg>
